<svg xmlns="http://www.w3.org/2000/svg" xmlns:xlink="http://www.w3.org/1999/xlink" width="375" height="248" viewBox="0 0 375 248">
  <defs>
    <linearGradient id="linear-gradient" x1="0.5" x2="0.5" y2="1" gradientUnits="objectBoundingBox">
      <stop offset="0" stop-color="#484f5b"/>
      <stop offset="1" stop-color="#484f5b" stop-opacity="0"/>
    </linearGradient>
  </defs>
  <g id="Group_154663" data-name="Group 154663" transform="translate(11274 -4945)">
    <path id="Path_153749" data-name="Path 153749" d="M0,0H375V248H0Z" transform="translate(-11274 4945)" fill="#edf0f5"/>
    <rect id="Rectangle_111889" data-name="Rectangle 111889" width="375" height="248" transform="translate(-11274 4945)" opacity="0.15" fill="url(#linear-gradient)"/>
    <g id="Group_154678" data-name="Group 154678" transform="translate(-11594.865 3942.562)">
      <path id="Path_155438" data-name="Path 155438" d="M528.7,1202.727a33.478,33.478,0,0,1,32.894,26.781,33.951,33.951,0,0,1,.53,9.727c-.043.514-.294.459-.624.418q-3.573-.452-7.147-.9l-11.909-1.5q-6.015-.757-12.03-1.513-5.955-.748-11.91-1.491l-11.971-1.5-10.064-1.261a3.556,3.556,0,0,0-.417-.051c-.369,0-.453-.161-.4-.525a33.508,33.508,0,0,1,26.544-27.545A32.7,32.7,0,0,1,528.7,1202.727ZM541.889,1209c-.154-.022-.258-.007-.315.084a.252.252,0,0,0,.03.331,4.516,4.516,0,0,0,.469.371,45.039,45.039,0,0,1,4.345,3.493A63.2,63.2,0,0,1,556.09,1225c.122.182.242.368.381.536a.275.275,0,0,0,.377.066.261.261,0,0,0,.077-.324c-.045-.153-.1-.3-.156-.452a29.17,29.17,0,0,0-5.849-9.338,24.331,24.331,0,0,0-8.516-6.294C542.22,1209.117,542.03,1209.055,541.889,1209Z" transform="translate(-20.559 -47.631)" fill="#bac1cc" opacity="0.91"/>
      <path id="Path_155439" data-name="Path 155439" d="M502.852,1208.8a15.651,15.651,0,0,1-3.356,1.278,12.675,12.675,0,0,1-9.569-.794,11.459,11.459,0,0,1-6.174-9.362c-.435-3.945.926-7.484,2.783-10.858a43.372,43.372,0,0,1,8.217-10.12c4.182-4.037,8.739-7.635,13.247-11.292a37.3,37.3,0,0,0,8.108-8.624,10.783,10.783,0,0,0,1.946-5.03,5.191,5.191,0,0,0-4.1-5.563,6.184,6.184,0,0,0-5.576,1.491,18.087,18.087,0,0,0-4.184,5.437,44.422,44.422,0,0,0-3.619,8.923c-.05.171-.107.339-.133.421a49.517,49.517,0,0,0-4.091-9.448,11.307,11.307,0,0,0-2.066-2.788c-3.053-2.961-6.751-.651-7.556,2.134a8.092,8.092,0,0,0,.2,4.31,31.415,31.415,0,0,0,4.481,9.5c.773,1.19,1.6,2.343,2.4,3.519.115.17.335.31.234.627a56.473,56.473,0,0,1-6.306-7.213,21.587,21.587,0,0,1-3.931-8.666,7.762,7.762,0,0,1,1.737-7.009c2.8-3.01,7.142-3.859,10.508.014a19.323,19.323,0,0,1,3.783,7.813c.3,1.095.51,2.215.788,3.448a43.722,43.722,0,0,1,1.514-4.781,21.5,21.5,0,0,1,4.806-7.8,9.546,9.546,0,0,1,10.1-2.2,8.091,8.091,0,0,1,5.046,7.529,12.77,12.77,0,0,1-2.29,7.507,33.79,33.79,0,0,1-7.7,8.26c-3.871,3.14-7.933,6.037-11.763,9.23a68.359,68.359,0,0,0-8.92,8.369,24.031,24.031,0,0,0-5.188,9.229,10.457,10.457,0,0,0,5.051,12.191,12.105,12.105,0,0,0,7.528,1.135,19.659,19.659,0,0,0,3.615-.848C502.545,1208.726,502.671,1208.645,502.852,1208.8Z" transform="translate(-14.566 -19.088)" fill="#bac1cc" opacity="0.8"/>
      <path id="Path_155440" data-name="Path 155440" d="M521.889,1280.271h39.657c.781,0,.834.079.5.788a4.589,4.589,0,0,1-1.848,1.92,14.674,14.674,0,0,1-7.822,2.348q-30.554.017-61.108,0a14.223,14.223,0,0,1-8.308-2.7,3.987,3.987,0,0,1-1.388-1.625c-.291-.647-.232-.731.476-.731h39.838Z" transform="translate(-13.461 -86.325)" fill="#bac1cc" opacity="0.91"/>
      <path id="Path_155441" data-name="Path 155441" d="M567.08,1194.873A1.866,1.866,0,0,1,569,1193a1.919,1.919,0,1,1-1.916,1.869Z" transform="translate(-56.209 -42.779)" fill="#bac1cc" opacity="0.91"/>
      <path id="Path_155442" data-name="Path 155442" d="M587.595,1215.243c.141.053.332.115.516.192a24.331,24.331,0,0,1,8.515,6.294,29.173,29.173,0,0,1,5.849,9.338c.057.149.111.3.156.452a.261.261,0,0,1-.077.323.275.275,0,0,1-.377-.066c-.139-.169-.259-.354-.381-.536a63.179,63.179,0,0,0-9.672-11.718,45.033,45.033,0,0,0-4.345-3.493,4.525,4.525,0,0,1-.469-.371.253.253,0,0,1-.03-.331C587.337,1215.235,587.441,1215.22,587.595,1215.243Z" transform="translate(-66.265 -53.872)" fill="#fefefe"/>
    </g>
  </g>
</svg>
