<svg xmlns="http://www.w3.org/2000/svg" xmlns:xlink="http://www.w3.org/1999/xlink" width="375" height="248" viewBox="0 0 375 248">
  <defs>
    <linearGradient id="linear-gradient" x1="0.5" x2="0.5" y2="1" gradientUnits="objectBoundingBox">
      <stop offset="0" stop-color="#484f5b"/>
      <stop offset="1" stop-color="#484f5b" stop-opacity="0"/>
    </linearGradient>
  </defs>
  <g id="Group_154655" data-name="Group 154655" transform="translate(11274 -4945)">
    <path id="Path_153749" data-name="Path 153749" d="M0,0H375V248H0Z" transform="translate(-11274 4945)" fill="#edf0f5"/>
    <rect id="Rectangle_111890" data-name="Rectangle 111890" width="375" height="248" transform="translate(-11274 4945)" opacity="0.15" fill="url(#linear-gradient)"/>
    <g id="Group_154664" data-name="Group 154664" transform="translate(-21911.215 -10035.883)">
      <rect id="Rectangle_111892" data-name="Rectangle 111892" width="111" height="50" transform="translate(10769.214 15098.883)" fill="#fff" opacity="0"/>
      <g id="Group_154667" data-name="Group 154667" transform="translate(10769.817 15099.817)">
        <g id="Group_140095" data-name="Group 140095" transform="translate(0 0)">
          <g id="Group_140094" data-name="Group 140094" transform="translate(13.027 32.557)">
            <g id="Group_140093" data-name="Group 140093">
              <path id="Path_154819" data-name="Path 154819" d="M777.558,235.839l-.339,3.369H771.5l-1.249,12.644h-3.621l1.239-12.644h-5.731l.339-3.369Z" transform="translate(-762.136 -235.839)" fill="#bac1cc"/>
              <path id="Path_154820" data-name="Path 154820" d="M797.18,235.839a1.88,1.88,0,0,0-.842.262,4.57,4.57,0,0,0-.988.726,7.046,7.046,0,0,0-.92,1.065,4.459,4.459,0,0,0-.658,1.278l-1.249,12.682h3.631l.406-4.114h8.558l-.407,4.114h3.621l1.568-16.012Zm8.268,8.49H796.89l.3-3.069a3.454,3.454,0,0,1,.639-1.288,2.913,2.913,0,0,1,1.307-.736h6.816Z" transform="translate(-775.165 -235.839)" fill="#bac1cc"/>
              <path id="Path_154821" data-name="Path 154821" d="M841.371,248.444l-.339,3.407H830.857a1.762,1.762,0,0,1-1.017-.406,4.971,4.971,0,0,1-1-1.056,6.021,6.021,0,0,1-.736-1.4,3.207,3.207,0,0,1-.223-1.433l1.152-11.714h3.62l-1.084,11.114a1.821,1.821,0,0,0,1.442,1.491Z" transform="translate(-790.322 -235.839)" fill="#bac1cc"/>
              <path id="Path_154822" data-name="Path 154822" d="M865.441,243.845l10.233,8.006h-5.886l-8.461-6.477-.629,6.477h-3.621l1.568-16.013h3.621l-.629,6.467,8.374-6.467h5.9Z" transform="translate(-802.843 -235.839)" fill="#bac1cc"/>
              <path id="Path_154823" data-name="Path 154823" d="M900.068,235.839a1.815,1.815,0,0,0-.842.262,4.6,4.6,0,0,0-.988.726,7.74,7.74,0,0,0-.929,1.065,4.432,4.432,0,0,0-.648,1.278l-1.249,12.682h3.63l.4-4.114H908l-.4,4.114h3.62l1.568-16.012Zm8.268,8.49h-8.558l.3-3.069a3.451,3.451,0,0,1,.639-1.288,2.916,2.916,0,0,1,1.307-.736h6.815Z" transform="translate(-819.279 -235.839)" fill="#bac1cc"/>
            </g>
          </g>
          <path id="Path_154824" data-name="Path 154824" d="M846.6,187.98h-.02c-.035,0-.065-.01-.095-.01,0,0-3.735,0-3.735.01h-18l1.156-9.134h-6.768l.757,1.862-1.165,9.393s-.02.07-.02.079l-.01.135-1.743,11.967H811.5l3.1-23.436h-6.788l.767,1.907-2.844,21.529h-5.08l.638-4.2v-.03c.01-.05.01-.115.02-.165l.827-5.742c0-.02,0-.02.01-.03a4.07,4.07,0,0,0-.827-2.6V189.5a8.009,8.009,0,0,0-.757-.623,4.927,4.927,0,0,0-1.136-.648,3.592,3.592,0,0,0-1.076-.254c-.339-.03-.687-.04-1.036-.04H782.416l-1.26,8.506s-.543,3.76-.543,3.83l-.309,2.007h-5.119l.762-5.189v-.115l.921-6.314c.02-.065,0-.115.02-.174l.388-2.675H748.391a1.091,1.091,0,0,0,0,2.182h3.535a.846.846,0,0,1,.847.851.856.856,0,0,1-.861.837c-1.334.03-2.669.005-4,.005-1.315,0-2.635,0-3.95.005a2.522,2.522,0,0,0-.667.059.975.975,0,0,0-.7.947.991.991,0,0,0,.847.971.6.6,0,0,0,.134.03h11.489a.681.681,0,0,1,.214.04.086.086,0,0,0,.04.025.808.808,0,0,1,.214.11.7.7,0,0,1,.184.174.874.874,0,0,1,.194.543v.039a.875.875,0,0,1-.787.872H740.368a1.032,1.032,0,0,0-1.036,1.036,1.014,1.014,0,0,0,.912,1c.02,0,.03.01.05.01h.03c.01,0,.02.01.045.01h12.694a1.952,1.952,0,0,1,.339.019c.468.095.837.349.846.872a.892.892,0,0,1-.747.861,4.149,4.149,0,0,1-.871.05c-2.231,0,.269.01-1.216.01h-6.285a.952.952,0,0,0-.956.951.963.963,0,0,0,.588.892.809.809,0,0,0,.3.074.153.153,0,0,0,.065.01h8.805l-.144.981-.568,3.95h92.87L847.87,194.1l.563-3.859A1.966,1.966,0,0,0,846.6,187.98Zm-76.206,6.6h-.03l-1.125,7.679v.02H759.81l.563-3.79h.01l.214-1.484h.019l.483-3.242a2.3,2.3,0,0,1,2.281-1.957h7.426Zm25.075,1.863-.513,3.635-.03.194-.02.02-.3,1.987h-8.252l.552-3.819h-.01l.3-2.017.368-2.56.309-2.057h5.558a3.712,3.712,0,0,1,1.823.832,2.311,2.311,0,0,1,.488,1.225.909.909,0,0,1,.065.259Zm45.2,5.836H824.946a3.12,3.12,0,0,1-.607-.254,1.671,1.671,0,0,1-.623-.483,1.746,1.746,0,0,1-.309-.623,4.637,4.637,0,0,1-.144-.821l1.2-8.118h17.7Z" transform="translate(-739.332 -178.846)" fill="#bac1cc"/>
          <path id="Path_154825" data-name="Path 154825" d="M777.22,239.208H771.5l-1.249,12.643h-3.62l1.239-12.643h-5.731l.339-3.369h15.083ZM795.3,251.851h-3.621l.407-4.114h-8.558l-.406,4.114h-3.631l1.249-12.682a4.459,4.459,0,0,1,.658-1.278,7.039,7.039,0,0,1,.92-1.065,4.568,4.568,0,0,1,.988-.726,1.881,1.881,0,0,1,.842-.262h12.721Zm17.542,0H802.671a1.762,1.762,0,0,1-1.017-.406,4.972,4.972,0,0,1-1-1.056,6.012,6.012,0,0,1-.736-1.4,3.207,3.207,0,0,1-.223-1.433l1.152-11.714h3.621l-1.084,11.114a1.821,1.821,0,0,0,1.442,1.491h8.355Zm22.121,0h-5.887l-8.461-6.477-.629,6.477H816.37l1.569-16.012h3.621l-.629,6.467,8.374-6.467h5.9l-10.465,8.007Zm19.11,0h-3.62l.4-4.114H842.3l-.4,4.114h-3.63l1.249-12.682a4.43,4.43,0,0,1,.648-1.278,7.736,7.736,0,0,1,.929-1.065,4.6,4.6,0,0,1,.988-.726,1.815,1.815,0,0,1,.842-.262h12.721Z" transform="translate(-749.109 -203.282)" fill="none"/>
        </g>
        <path id="Path_154826" data-name="Path 154826" d="M762.475,235.839h15.083l-.339,3.369H771.5l-1.249,12.644h-3.621l1.239-12.644h-5.731Z" transform="translate(-749.109 -203.282)" fill="none"/>
        <path id="Path_154827" data-name="Path 154827" d="M797.18,235.839H809.9l-1.568,16.012h-3.621l.407-4.114H796.56l-.406,4.114h-3.631l1.249-12.682a4.459,4.459,0,0,1,.658-1.278,7.046,7.046,0,0,1,.92-1.065,4.57,4.57,0,0,1,.988-.726A1.88,1.88,0,0,1,797.18,235.839Z" transform="translate(-762.138 -203.282)" fill="none"/>
        <path id="Path_154828" data-name="Path 154828" d="M833.016,248.444h8.355l-.339,3.407H830.857a1.762,1.762,0,0,1-1.017-.406,4.971,4.971,0,0,1-1-1.056,6.021,6.021,0,0,1-.736-1.4,3.207,3.207,0,0,1-.223-1.433l1.152-11.714h3.62l-1.084,11.114A1.821,1.821,0,0,0,833.016,248.444Z" transform="translate(-777.295 -203.282)" fill="none"/>
        <path id="Path_154829" data-name="Path 154829" d="M875.906,235.839l-10.465,8.006,10.233,8.006h-5.886l-8.461-6.477-.629,6.477h-3.621l1.568-16.013h3.621l-.629,6.467,8.374-6.467Z" transform="translate(-789.816 -203.282)" fill="none"/>
        <path id="Path_154830" data-name="Path 154830" d="M912.789,235.839l-1.568,16.012H907.6l.4-4.114h-8.558l-.4,4.114h-3.63l1.249-12.682a4.432,4.432,0,0,1,.648-1.278,7.74,7.74,0,0,1,.929-1.065,4.6,4.6,0,0,1,.988-.726,1.815,1.815,0,0,1,.842-.262Z" transform="translate(-806.253 -203.282)" fill="none"/>
        <g id="Group_140096" data-name="Group 140096" transform="translate(25.194)">
          <path id="Path_154831" data-name="Path 154831" d="M817.057,183.91h5.914l.735-5.056.045-.008h-6.8l.737.737Z" transform="translate(-797.805 -178.846)" fill="#bac1cc"/>
          <path id="Path_154832" data-name="Path 154832" d="M831.246,183.91h5.914l.737-5.065h-6.935l.892.892Z" transform="translate(-803.813 -178.846)" fill="#bac1cc"/>
          <path id="Path_154833" data-name="Path 154833" d="M783.586,183.91H789.5l.737-5.065h-6.8l.775.775Z" transform="translate(-783.435 -178.846)" fill="#bac1cc"/>
          <path id="Path_154834" data-name="Path 154834" d="M797.414,183.911h5.915l.734-5.05.015,0v-.012H797.34l.708.708Z" transform="translate(-789.397 -178.846)" fill="#bac1cc"/>
        </g>
      </g>
    </g>
  </g>
</svg>
